<svg t="1729753105483" class="icon" viewBox="0 0 1024 1024" version="1.1" xmlns="http://www.w3.org/2000/svg" p-id="3317"
  width="200" height="200">
  <path
    d="M824 78.4H200a129.92 129.92 0 0 0-128 129.6V672a129.92 129.92 0 0 0 129.6 129.6h268.8V864H384a41.6 41.6 0 0 0 0 83.2h256a41.6 41.6 0 0 0 0-83.2h-86.4v-60.8h270.4A129.92 129.92 0 0 0 953.6 672V208a129.92 129.92 0 0 0-129.6-129.6z m-624 83.2h624A46.4 46.4 0 0 1 870.4 208V544H153.6V208a46.4 46.4 0 0 1 46.4-46.4z m624 556.8H200A46.4 46.4 0 0 1 153.6 672v-46.4h716.8V672a46.4 46.4 0 0 1-46.4 46.4z"
    p-id="3318"></path>
</svg>