<svg t="1729752052443" class="icon" viewBox="0 0 1024 1024" version="1.1" xmlns="http://www.w3.org/2000/svg"
  p-id="28534" width="200" height="200">
  <path
    d="M976 206.4h-928a41.6 41.6 0 0 0 0 83.2h35.84L137.6 854.72a135.04 135.04 0 0 0 135.04 122.88h497.92a136 136 0 0 0 135.68-128l34.88-560h34.88a41.6 41.6 0 1 0 0-83.2z m-152.96 640A52.48 52.48 0 0 1 770.56 896H272.64a52.16 52.16 0 0 1-52.16-47.68L167.36 289.6H857.6zM288 129.6h448a41.6 41.6 0 1 0 0-83.2H288a41.6 41.6 0 0 0 0 83.2z"
    p-id="28535"></path>
  <path
    d="M426.88 705.6a41.6 41.6 0 0 0 41.6-41.6v-192a41.6 41.6 0 0 0-83.2 0v192a41.6 41.6 0 0 0 41.6 41.6zM618.88 705.6a41.6 41.6 0 0 0 41.6-41.6v-192a41.6 41.6 0 0 0-83.2 0v192a41.6 41.6 0 0 0 41.6 41.6z"
    p-id="28536"></path>
</svg>