<svg t="1737017354943" class="icon" viewBox="0 0 1024 1024" version="1.1" xmlns="http://www.w3.org/2000/svg" p-id="3600"
  width="200" height="200">
  <path
    d="M402.56 360.64l72.64-74.56v301.44a41.6 41.6 0 0 0 83.2 0V286.08l72.64 74.56a42.24 42.24 0 0 0 29.76 12.48 40.96 40.96 0 0 0 29.12-11.84 41.6 41.6 0 0 0 0-58.88l-144-147.52a42.88 42.88 0 0 0-59.52 0l-144 147.52a41.6 41.6 0 0 0 59.52 58.24zM827.2 640a41.6 41.6 0 0 0-41.6 41.6v78.72A40 40 0 0 1 745.6 800H278.4a40 40 0 0 1-40-39.68v-80.32a41.6 41.6 0 0 0-83.2 0v78.72a123.2 123.2 0 0 0 123.2 122.88h467.2a123.2 123.2 0 0 0 123.2-122.88v-78.72a41.6 41.6 0 0 0-41.6-40z"
    p-id="3601"></path>
</svg>