<svg t="1729751284647" class="icon" viewBox="0 0 1024 1024" version="1.1" xmlns="http://www.w3.org/2000/svg"
  p-id="25316" width="200" height="200">
  <path
    d="M853.333333 938.666667H170.666667c-72.533333 0-128-55.466667-128-128V213.333333c0-72.533333 55.466667-128 128-128h213.333333c12.8 0 25.6 8.533333 34.133333 17.066667L490.666667 213.333333H853.333333c72.533333 0 128 55.466667 128 128v469.333334c0 72.533333-55.466667 128-128 128zM170.666667 170.666667c-25.6 0-42.666667 17.066667-42.666667 42.666666v597.333334c0 25.6 17.066667 42.666667 42.666667 42.666666h682.666666c25.6 0 42.666667-17.066667 42.666667-42.666666V341.333333c0-25.6-17.066667-42.666667-42.666667-42.666666h-384c-12.8 0-25.6-8.533333-34.133333-17.066667L362.666667 170.666667H170.666667z"
    p-id="25317"></path>
</svg>