<svg t="1737017291716" class="icon" viewBox="0 0 1024 1024" version="1.1" xmlns="http://www.w3.org/2000/svg" p-id="3434"
  width="200" height="200">
  <path
    d="M487.04 616.64a41.92 41.92 0 0 0 29.76 12.48 41.28 41.28 0 0 0 29.76-12.48l144-147.52a41.6 41.6 0 0 0-59.52-58.24l-72.64 74.56V184a41.6 41.6 0 0 0-83.2 0v301.44l-72.64-74.56a41.6 41.6 0 0 0-59.52 58.24zM827.2 640a41.6 41.6 0 0 0-41.6 41.6v78.72A40 40 0 0 1 745.6 800H278.4a40 40 0 0 1-40-39.68v-80.32a41.6 41.6 0 0 0-83.2 0v78.72a123.2 123.2 0 0 0 123.2 122.88h467.2a123.2 123.2 0 0 0 123.2-122.88v-78.72a41.6 41.6 0 0 0-41.6-40z"
    p-id="3435"></path>
</svg>