<svg t="1731555980209" class="icon" viewBox="0 0 1024 1024" version="1.1" xmlns="http://www.w3.org/2000/svg" p-id="3901"
  width="200" height="200">
  <path
    d="M928 247.36l-110.08-117.76a160 160 0 0 0-118.08-51.2H350.08a160 160 0 0 0-108.16 41.6L104.96 243.84a154.88 154.88 0 0 0-50.56 114.24v437.76a150.08 150.08 0 0 0 149.76 149.76h615.68a150.08 150.08 0 0 0 149.76-149.76V352A152.64 152.64 0 0 0 928 247.36zM297.6 181.76a77.44 77.44 0 0 1 52.48-20.16h349.76a77.76 77.76 0 0 1 57.28 24.96l108.48 115.84H164.16zM819.84 864H204.16a66.56 66.56 0 0 1-66.56-68.16V385.6h748.8v410.24A66.56 66.56 0 0 1 819.84 864z"
    p-id="3902"></path>
  <path
    d="M608 558.4h-54.4v-54.4a41.6 41.6 0 0 0-83.2 0v54.4H416a41.6 41.6 0 0 0 0 83.2h54.4v54.4a41.6 41.6 0 0 0 83.2 0v-54.4H608a41.6 41.6 0 0 0 0-83.2z"
    p-id="3903"></path>
</svg>