<svg t="1729753997853" class="icon" viewBox="0 0 1024 1024" version="1.1" xmlns="http://www.w3.org/2000/svg" p-id="3978"
  width="200" height="200">
  <path
    d="M838.08 110.4h-68.16A121.92 121.92 0 0 0 656 32h-288a121.92 121.92 0 0 0-113.92 80H185.92A115.52 115.52 0 0 0 70.4 225.92v652.16a115.52 115.52 0 0 0 115.52 115.52h652.16a115.52 115.52 0 0 0 115.52-115.52V225.92a115.52 115.52 0 0 0-115.52-115.52z m-470.08 3.2h288a38.4 38.4 0 0 1 0 76.8h-288a38.4 38.4 0 1 1 0-76.8z m502.4 764.48a32 32 0 0 1-32 32H185.92a32 32 0 0 1-32-32V225.92a32 32 0 0 1 32-32h68.16a121.92 121.92 0 0 0 113.92 80h288a121.92 121.92 0 0 0 113.92-80h68.16a32 32 0 0 1 32 32z"
    p-id="3979"></path>
  <path
    d="M672 481.6a41.6 41.6 0 0 0 0-83.2H352a41.6 41.6 0 0 0 0 83.2zM688 558.4h-320a41.6 41.6 0 0 0 0 83.2h320a41.6 41.6 0 0 0 0-83.2zM528 718.4h-160a41.6 41.6 0 0 0 0 83.2h160a41.6 41.6 0 0 0 0-83.2z"
    p-id="3980"></path>
</svg>