<svg t="1716428748094" class="icon" viewBox="0 0 1024 1024" version="1.1" xmlns="http://www.w3.org/2000/svg" p-id="844"
  width="200" height="200">
  <path
    d="M663.6 456C663.6 456 663.6 456 663.6 456c-2.4-1-4.8-2-7-3.4-14-8-24.4-21.8-27.8-38.4L591.8 178.8l-0.4-11.6c0-14.2 8.2-20.4 20-26l0 0c1.4-0.6 2.8-1.2 4.2-1.8 14.4-6.8 24.2-15.6 24.2-32.6 0-40.2-13-42.8-36.4-42.8l-182.6 0c-23.4 0-36.4 2.4-36.4 42.8 0 17 9.8 25.8 24.2 32.6 1.4 0.6 2.8 1 4.2 1.8 0 0 0 0 0 0 11.8 5.8 20 12 20 26l-0.4 11.6-37 235.4c-3.4 16.6-13.8 30.4-27.8 38.4-2.2 1.4-4.6 2.4-7 3.4 0 0 0 0 0 0-39.4 20.4-72.4 61.6-72.4 109.4 0 31.8 7 42.6 30.4 42.6L480 608l24 352 16 0 24-352 161.6 0c23.4 0 30.4-9.4 30.4-42.6C736 517.6 703 476.4 663.6 456z"
    p-id="845"></path>
</svg>