<svg t="1738921051166" class="icon" viewBox="0 0 1024 1024" version="1.1" xmlns="http://www.w3.org/2000/svg" p-id="1159"
  width="200" height="200">
  <path
    d="M458.666667 106.666667a10.666667 10.666667 0 0 0-10.666667 10.666666v106.666667a10.666667 10.666667 0 0 0 10.666667 10.666667h106.666666a10.666667 10.666667 0 0 0 10.666667-10.666667v-106.666667a10.666667 10.666667 0 0 0-10.666667-10.666666h-106.666666z m0 682.666666a10.666667 10.666667 0 0 0-10.666667 10.666667v106.666667a10.666667 10.666667 0 0 0 10.666667 10.666666h106.666666a10.666667 10.666667 0 0 0 10.666667-10.666666v-106.666667a10.666667 10.666667 0 0 0-10.666667-10.666667h-106.666666z m448-341.333333a10.666667 10.666667 0 0 1 10.666666 10.666667v106.666666a10.666667 10.666667 0 0 1-10.666666 10.666667h-106.666667a10.666667 10.666667 0 0 1-10.666667-10.666667v-106.666666a10.666667 10.666667 0 0 1 10.666667-10.666667h106.666667z m-672 10.666667a10.666667 10.666667 0 0 0-10.666667-10.666667h-106.666667a10.666667 10.666667 0 0 0-10.666666 10.666667v106.666666a10.666667 10.666667 0 0 0 10.666666 10.666667h106.666667a10.666667 10.666667 0 0 0 10.666667-10.666667v-106.666666z m601.664 287.146666a10.666667 10.666667 0 0 1 0 15.082667l-75.434667 75.434667a10.666667 10.666667 0 0 1-15.082667 0l-75.413333-75.434667a10.666667 10.666667 0 0 1 0-15.082667l75.413333-75.413333a10.666667 10.666667 0 0 1 15.082667 0l75.434667 75.413333zM353.6 278.186667a10.666667 10.666667 0 0 0 0-15.082667L278.186667 187.669333a10.666667 10.666667 0 0 0-15.082667 0l-75.434667 75.434667a10.666667 10.666667 0 0 0 0 15.082667l75.434667 75.413333a10.666667 10.666667 0 0 0 15.082667 0l75.413333-75.413333zM278.186667 836.330667a10.666667 10.666667 0 0 1-15.082667 0l-75.434667-75.434667a10.666667 10.666667 0 0 1 0-15.082667l75.434667-75.413333a10.666667 10.666667 0 0 1 15.082667 0l75.434666 75.413333a10.666667 10.666667 0 0 1 0 15.082667l-75.434666 75.434667z m467.626666-482.730667a10.666667 10.666667 0 0 0 15.104 0l75.413334-75.413333a10.666667 10.666667 0 0 0 0-15.082667l-75.413334-75.434667a10.666667 10.666667 0 0 0-15.104 0l-75.413333 75.434667a10.666667 10.666667 0 0 0 0 15.082667l75.413333 75.413333zM512 704a192 192 0 1 0 0-384 192 192 0 0 0 0 384z"
    p-id="1160"></path>
</svg>