<svg t="1738920988356" class="icon" viewBox="0 0 1024 1024" version="1.1" xmlns="http://www.w3.org/2000/svg" p-id="998"
  width="200" height="200">
  <path
    d="M448 106.666667h128v128h-128V106.666667z m64 298.666666a106.666667 106.666667 0 1 0 0 213.333334 106.666667 106.666667 0 0 0 0-213.333334z m-192 106.666667a192 192 0 1 1 384 0 192 192 0 0 1-384 0z m256 405.333333v-128h-128v128h128z m341.333333-341.333333h-128v-128h128v128z m-682.666666 0v-128H106.666667v128h128z m609.194666 177.365333l-90.496 90.496-90.517333-90.496 90.517333-90.517333 90.496 90.517333z m-573.226666-392.213333l90.517333-90.517333-90.517333-90.496-90.496 90.496 90.496 90.517333z m0 482.709333l-90.496-90.496 90.517333-90.517333 90.517333 90.517333-90.517333 90.496z m392.234666-573.226666l90.496 90.517333 90.517334-90.517333-90.517334-90.496-90.496 90.496z"
    p-id="999"></path>
</svg>